<svg version="1.1" xmlns="http://www.w3.org/2000/svg" xmlns:xlink="http://www.w3.org/1999/xlink" width="720" height="540" viewBox="0,0,720,540"><defs><clipPath id="clip-1"><path d="M-120,450v-540h720v540z" fill="none" fill-rule="nonzero" stroke="none" stroke-width="1"/></clipPath></defs><g transform="translate(120,90)"><g clip-path="url(#clip-1)" data-paper-data="{&quot;isPaintingLayer&quot;:true}" stroke-linecap="butt" stroke-linejoin="miter" stroke-miterlimit="10" stroke-dasharray="" stroke-dashoffset="0" style="mix-blend-mode: normal"><path d="M-22.87588,534.53604v-538.97583h691.27669v538.97583z" fill="#669265" fill-rule="nonzero" stroke="none" stroke-width="1"/><path d="M588.56576,34.50058h0.4146c13.36271,-2.03372 27.536,-7.40741 40.42911,-12.29542c14.04806,-5.32588 26.57565,-10.07529 34.87521,-9.29958c7.05914,0.65972 15.70222,5.77982 16.49926,11.84562c-21.57003,5.99177 -58.69591,10.40147 -93.96117,11.25503c0.85881,-0.68899 1.4587,-1.21485 1.743,-1.50566zM558.76894,50.17987c-0.44675,0.07336 -0.89096,0.13538 -1.33263,0.18538l-132.42645,-1.00612z" fill="#e81919" fill-rule="evenodd" stroke="none" stroke-width="1"/><path d="M293.34492,33.46773c-72.29807,-9.92545 -147.30624,-26.28975 -147.30624,-37.48445c0,-15.93338 151.95057,-15.7579 231.76722,-15.66575c5.62498,0.00652 10.8912,0.01261 15.72168,0.01261c31.17599,0 48.99519,4.43069 62.71919,10.17585c-10.31838,4.39098 -16.18281,9.42855 -16.18281,14.78457c0,3.27049 2.18636,6.42227 6.23841,9.38063c-14.69957,0.50344 -29.82643,3.47737 -43.63166,6.19145c-10.01209,1.96832 -19.32952,3.79999 -27.28301,4.45336c-20.10118,1.65111 -32.59661,3.96431 -34.87605,6.45629c-17.20831,0.15475 -33.49011,0.74695 -47.16673,1.69545z" fill="#e75333" fill-rule="nonzero" stroke="none" stroke-width="1"/><path d="M680.78393,24.75121c-0.79704,-6.0658 -9.44012,-11.18591 -16.49926,-11.84562c-8.29955,-0.77572 -20.82714,3.9737 -34.87521,9.29958c-12.89311,4.88801 -27.0664,10.26169 -40.42911,12.29542h-0.4146c0.13199,-0.14545 -10.15678,-0.54448 -20.45401,-0.94384c-10.25069,-0.39751 -20.509,-0.79535 -20.50308,-0.94367c0.04146,-2.50103 -10.44953,-9.86157 -28.94224,-11.66929c-2.79895,-0.27363 -5.68759,-0.60726 -8.66677,-0.97693c1.5907,-2.09761 2.4072,-4.31477 2.4072,-6.6382c-18.00704,-3.304 -28.89063,-9.05928 -39.83683,-14.8477c-5.174,-2.73606 -10.36238,-5.47951 -16.32327,-7.97497c22.53968,-9.59211 66.33041,-16.09866 116.65738,-16.09866c73.36586,0 132.8402,13.8269 132.8402,30.88323c0,7.53906 -5.65713,14.09866 -24.96042,19.46067z" fill="#cb19e8" fill-rule="nonzero" stroke="none" stroke-width="1"/><path d="M446.30237,14.67118c-4.05205,-2.95836 -6.23841,-6.11014 -6.23841,-9.38063c0,-5.35602 5.86443,-10.39359 16.18281,-14.78457c5.96089,2.49547 11.14927,5.23891 16.32327,7.97497c10.9462,5.78842 21.82979,11.5437 39.83683,14.8477c0,2.32343 -0.8165,4.5406 -2.4072,6.6382c-2.94279,-0.36501 -5.97442,-0.76514 -9.09575,-1.1772c-14.60481,-1.92754 -31.18445,-4.11585 -49.87853,-4.19174c-1.56785,-0.00643 -3.14247,0.01921 -4.72302,0.07327z" fill="#e81919" fill-rule="nonzero" stroke="none" stroke-width="1"/><path d="M509.99966,19.96685c-2.88779,3.80693 -8.32409,7.22033 -16.05759,10.16118c-22.18685,-3.81869 -39.07702,-9.20591 -47.63971,-15.45685c1.58054,-0.05407 3.15517,-0.0797 4.72302,-0.07327c18.69408,0.0759 35.27373,2.26421 49.87853,4.19174c3.12132,0.41206 6.15295,0.81219 9.09575,1.1772z" fill="#8875bf" fill-rule="nonzero" stroke="none" stroke-width="1"/><path d="M493.94208,30.12802c22.07347,3.79914 49.38948,6.04575 78.96207,6.04575c4.70017,0 9.34366,-0.05677 13.91861,-0.16753c-4.6841,3.75836 -17.07631,12.37148 -28.05382,14.17363l-133.75908,-0.82073c-3.62645,-1.7067 -9.81156,-4.50354 -17.38091,-7.40901c38.7978,-0.82352 68.587,-5.08143 86.31313,-11.8221z" fill="#1d19e8" fill-rule="nonzero" stroke="none" stroke-width="1"/><path d="M402.67071,20.86263c13.80523,-2.71409 28.93209,-5.68801 43.63166,-6.19145c8.56269,6.25094 25.45286,11.63815 47.63971,15.45685c-17.72613,6.74067 -47.51533,10.99858 -86.31313,11.8221c-16.80555,-6.45045 -40.43672,-13.43641 -58.06386,-10.21837c-3.05617,0 -6.07342,0.01345 -9.05344,0.04053c2.27944,-2.49198 14.77488,-4.80518 34.87605,-6.45629c7.95349,-0.65337 17.27092,-2.48504 27.28301,-4.45336z" fill="#80e819" fill-rule="nonzero" stroke="none" stroke-width="1"/><path d="M407.62895,41.95012c-4.57664,0.09713 -9.27935,0.14646 -14.10137,0.14646c-25.21341,0 -62.32659,-3.43176 -100.18266,-8.62886c13.67662,-0.9485 29.95843,-1.54069 47.16673,-1.69545c2.98002,-0.02708 5.99727,-0.04053 9.05344,-0.04053c17.62713,-3.21803 41.2583,3.76792 58.06386,10.21837z" fill="#e8a119" fill-rule="nonzero" stroke="none" stroke-width="1"/><path d="M568.11175,33.55674c10.29723,0.39937 20.586,0.79839 20.45401,0.94384c-0.28429,0.29081 -0.88419,0.81667 -1.743,1.50566c-4.57495,0.11076 -9.21843,0.16753 -13.91861,0.16753c-29.5726,0 -56.8886,-2.24661 -78.96207,-6.04575c7.7335,-2.94085 13.16979,-6.35425 16.05759,-10.16118c2.97917,0.36967 5.86781,0.70329 8.66677,0.97693c18.49271,1.80773 28.9837,9.16826 28.94224,11.66929c-0.00592,0.14832 10.25239,0.54617 20.50308,0.94367z" fill-opacity="0.85" fill="#e8a119" fill-rule="nonzero" stroke="none" stroke-width="1"/><path d="M255.34924,40.96897c-1.1651,-2.26192 7.03122,-4.47891 22.88744,-6.1912c4.54364,-0.49066 9.61611,-0.92912 15.10825,-1.31004c37.85607,5.1971 74.96925,8.62886 100.18266,8.62886c4.82201,0 9.52473,-0.04933 14.10137,-0.14646c7.56935,2.90548 13.75446,5.70231 17.38091,7.40901h-75.44477c-24.23022,0.00042 -47.5331,-0.87074 -65.07477,-2.43292c-17.54167,-1.5621 -27.97682,-3.69533 -29.14108,-5.95725z" fill="#e87019" fill-rule="nonzero" stroke="none" stroke-width="1"/><path d="M588.56576,34.50058h0.4146c13.36271,-2.03372 27.536,-7.40741 40.42911,-12.29542c14.04806,-5.32588 26.57565,-10.07529 34.87521,-9.29958c7.05914,0.65972 15.70222,5.77982 16.49926,11.84562c-21.57003,5.99177 -58.69591,10.40147 -93.96117,11.25503c0.85881,-0.68899 1.4587,-1.21485 1.743,-1.50566zM558.76894,50.17987c-0.44675,0.07336 -0.89096,0.13538 -1.33263,0.18538h31.54405z" fill="#7a58db" fill-rule="evenodd" stroke="none" stroke-width="1"/><path d="M588.98035,50.36525l-30.21141,-0.18538c10.97751,-1.80214 23.36972,-10.41526 28.05382,-14.17363c35.26526,-0.85356 72.39114,-5.26326 93.96117,-11.25503c1.00011,7.61115 -1.69223,14.80703 -4.65364,17.34538c-1.26917,1.69223 -11.21611,4.45776 -27.13324,5.94532c-15.91798,1.48764 -37.50578,2.32335 -60.01669,2.32335z" fill="#1de819" fill-rule="nonzero" stroke="none" stroke-width="1"/><path d="M512.63616,12.08029l1.03988,0.19088v1.05748h-1.26917zM589.17157,35.75529c-0.06346,0.00965 -0.12692,0.01447 -0.19122,0.01447v-1.26917zM664.40312,11.64191l-0.11846,1.26367zM675.11495,41.33508c0.05584,-0.07412 0.1193,-0.14189 0.18953,-0.20214l0.82581,0.96364zM349.56509,48.08996v0v1.26917zM278.3729,36.03958v0l-0.13622,-1.26181zM340.52265,33.04137v0l-0.011,-1.26909zM548.87784,32.63396c0,0.01091 -0.00085,0.02183 -0.00085,0.03274l-1.26833,-0.05364zM518.5429,22.20685l0.12353,-1.26308zM451.03131,13.32873l-0.00592,1.26917zM375.49092,26.58094l-0.10323,-1.26494zM557.43631,51.63443h-0.00931l0.00931,-1.26917zM349.7927,32.98028c-0.0753,0.01371 -0.15145,0.02065 -0.22761,0.02065v-1.26917zM501.06976,17.53139l-0.16584,1.25826zM402.91524,22.10794l-0.24453,-1.24531zM377.80421,-18.41331l0.00169,-1.26917zM473.16316,-2.64102l-0.59313,1.12197zM568.06268,34.82498l0.04907,-1.26824zM629.85959,23.39192l-0.45013,-1.18676zM572.90415,-26.86186c36.7502,0 70.06093,3.46197 94.21924,9.07849c12.06984,2.80589 21.92456,6.1652 28.79332,9.94054c3.43354,1.88739 6.18003,3.91054 8.08125,6.07078c1.90884,2.16831 3.01556,4.53593 3.01556,7.0626h-2.53835c0,-1.73741 -0.75135,-3.53296 -2.38266,-5.38549c-1.63723,-1.86062 -4.11043,-3.716 -7.39844,-5.52342c-6.57601,-3.61429 -16.1752,-6.90974 -28.1452,-9.69266c-23.9197,-5.56101 -57.02906,-9.01249 -93.64472,-9.01249zM588.56576,33.23141h0.4146v2.53835h-0.4146zM677.14563,42.85809c-0.31814,0.42416 -0.79704,0.75677 -1.26748,1.02312c-0.49836,0.28235 -1.11603,0.56072 -1.83099,0.83435c-1.43163,0.54811 -3.35147,1.11408 -5.70028,1.66592c-4.7044,1.1052 -11.22965,2.17621 -19.23221,2.92409l-0.23607,-2.52735c7.91541,-0.73967 14.3222,-1.7952 18.88785,-2.86774c2.28621,-0.53703 4.08589,-1.07271 5.37368,-1.56557c0.64474,-0.24681 1.13633,-0.47374 1.48747,-0.67232c0.37906,-0.21466 0.48821,-0.33862 0.48736,-0.33752zM649.11466,49.30558c-15.96875,1.49246 -37.59885,2.32885 -60.1343,2.32885v-2.53835c22.48553,0 44.03272,-0.83503 59.89824,-2.31785zM588.97528,51.63443l-239.41611,-1.00612l0.011,-2.53835l239.41526,1.00612zM349.56509,50.62831c-24.2556,0.00042 -47.5974,-0.8715 -65.18731,-2.43791l0.22507,-2.52836c17.49345,1.55787 40.75656,2.42835 64.96224,2.42793zM284.37778,48.1904c-8.79114,-0.78283 -15.83929,-1.71178 -20.85422,-2.73693c-2.50281,-0.51165 -4.5411,-1.05553 -6.05057,-1.63393c-0.75474,-0.28886 -1.41386,-0.60023 -1.94522,-0.94249c-0.5119,-0.33032 -1.01449,-0.75888 -1.30725,-1.32722l2.25659,-1.1618c-0.00169,-0.00279 0.077,0.13013 0.42644,0.35554c0.33083,0.21339 0.81481,0.452 1.47732,0.70558c1.32248,0.50657 3.20678,1.01771 5.65121,1.51742c4.87955,0.9974 11.81939,1.9162 20.57077,2.69547zM254.22052,41.54983c-0.33337,-0.64736 -0.33252,-1.36115 -0.00254,-2.00462c0.28937,-0.56546 0.78773,-0.99249 1.2954,-1.32197c1.02549,-0.66488 2.59504,-1.24827 4.5648,-1.78107c3.98436,-1.07761 10.07639,-2.06825 18.02227,-2.92629l0.27245,2.52371c-7.91118,0.85432 -13.84415,1.82837 -17.63136,2.85285c-1.91561,0.51816 -3.16786,1.02008 -3.84729,1.46065c-0.34437,0.22321 -0.41967,0.35385 -0.41714,0.34928c0.04231,-0.08267 0.04231,-0.23234 0,-0.31433zM546.3395,32.59217c-0.00169,0.09595 0.02877,-0.01726 -0.23522,-0.38397c-0.23776,-0.33219 -0.63459,-0.75643 -1.21925,-1.2498c-1.16341,-0.9831 -2.95125,-2.13991 -5.34914,-3.29689c-4.78563,-2.30964 -11.88539,-4.56429 -20.99298,-5.45466l0.24707,-2.52625c9.38512,0.91744 16.77679,3.24697 21.84925,5.69478c2.53158,1.22179 4.51487,2.48699 5.88389,3.64388c0.68282,0.57663 1.24379,1.1519 1.64316,1.70805c0.37483,0.52155 0.72343,1.18541 0.71158,1.90664zM375.49092,26.58094c-10.02986,0.82395 -18.13142,1.81077 -23.99331,2.89583c-2.93348,0.54312 -5.27553,1.10528 -7.00584,1.67345c-0.86473,0.28404 -1.55347,0.56199 -2.07637,0.82792c-0.53559,0.27287 -0.82919,0.49921 -0.96796,0.65083l-1.87245,-1.71338c0.43152,-0.47137 1.02718,-0.86245 1.68969,-1.19954c0.6752,-0.34395 1.49424,-0.66843 2.43512,-0.97752c1.88176,-0.618 4.34819,-1.20453 7.33582,-1.75764c5.98119,-1.10731 14.17752,-2.1026 24.24799,-2.92976zM340.4998,30.50311c2.98425,-0.02708 6.00573,-0.04053 9.06529,-0.04053v2.53835c-3.05194,0 -6.0658,0.01345 -9.04244,0.04044zM500.73723,20.04791c-14.60819,-1.92813 -31.11422,-4.10535 -49.71692,-4.18091l0.011,-2.53826c18.78377,0.07624 35.43787,2.27563 50.03845,4.20266zM402.91524,22.10794c-9.99009,1.96409 -19.38367,3.8126 -27.42431,4.47299l-0.2073,-2.5298c7.86803,-0.64635 17.10846,-2.46118 27.14171,-4.43382zM349.56509,48.08996h75.44477v2.53835h-75.44477zM588.98035,51.63443h-31.54405v-2.53835h31.54405zM425.02001,48.08996l132.4256,1.00612l-0.01861,2.53826l-132.42645,-1.00612zM572.90415,-24.32351c-50.2779,0 -93.86048,6.50722 -116.16071,15.99731l-0.99419,-2.33564c22.77998,-9.69423 66.778,-16.20001 117.1549,-16.20001zM455.75602,-8.3233c-13.53955,-5.66821 -31.18699,-10.0774 -62.22844,-10.0774v-2.53835c31.30967,0 49.30148,4.45226 63.20909,10.27429zM393.52758,-18.4007c-4.83132,0 -10.09839,-0.00609 -15.72337,-0.01261l0.00254,-2.53835c5.62582,0.00652 10.89205,0.01261 15.72083,0.01261zM377.80421,-18.41331c-39.91383,-0.04603 -97.82877,-0.1127 -145.76208,1.82228c-23.973,0.96779 -45.40766,2.43487 -60.83404,4.64799c-7.72335,1.10817 -13.87207,2.39419 -18.06204,3.87173c-2.1026,0.7412 -3.62899,1.50235 -4.60625,2.25665c-0.98319,0.75883 -1.23194,1.36286 -1.23194,1.79794h-2.53835c0,-1.5566 0.93834,-2.8184 2.21936,-3.80744c1.28779,-0.99359 3.1044,-1.86236 5.31276,-2.64106c4.43111,-1.56225 10.77782,-2.87588 18.54601,-3.99047c15.55923,-2.23231 37.10049,-3.70311 61.09211,-4.67166c47.99592,-1.93752 105.96502,-1.87034 145.867,-1.82431zM393.52758,40.82741c4.81355,0 9.50696,-0.04924 14.07429,-0.14621l0.05331,2.53776c-4.58595,0.09739 -9.29628,0.1468 -14.1276,0.1468zM408.08331,40.76522c7.60658,2.91969 13.8213,5.7299 17.46722,7.44548l-1.08049,2.29678c-3.60868,-1.69773 -9.76333,-4.4812 -17.2963,-7.37255zM493.72632,31.37875c-22.20039,-3.82097 -39.352,-9.24305 -48.17192,-15.6825l1.49678,-2.05014c8.30378,6.06242 24.9325,11.41478 47.10581,15.2311zM446.25921,13.40276c1.59493,-0.05466 3.18647,-0.08047 4.77209,-0.07404l-0.011,2.53826c-1.55008,-0.00626 -3.10948,0.01904 -4.67394,0.0726zM501.06976,17.53139c3.12301,0.41223 6.14872,0.81168 9.08559,1.17593l-0.31222,2.51906c-2.94871,-0.36578 -5.98458,-0.7665 -9.1059,-1.17847zM511.01077,20.73377c-3.10355,4.09232 -8.8106,7.61166 -16.61772,10.58051l-0.90196,-2.37259c7.65904,-2.91275 12.82627,-6.22014 15.49746,-9.74176zM572.90415,37.44295c-29.63182,0 -57.02144,-2.25075 -79.17783,-6.0642l0.43067,-2.50154c21.99055,3.78493 49.23295,6.02739 78.74716,6.02739zM445.5544,15.69625c-4.17051,-3.045 -6.75962,-6.52702 -6.75962,-10.4057h2.53835c0,2.6623 1.78446,5.48385 5.71805,8.35556zM349.33663,30.48314c9.04667,-1.65153 19.54697,-0.67537 29.82982,1.49018c10.30061,2.1691 20.4777,5.55247 28.91686,8.79191l-0.90957,2.36972c-8.36555,-3.21093 -18.40641,-6.54581 -28.53018,-8.67776c-10.1407,-2.1356 -20.2704,-3.04339 -28.85086,-1.4769zM446.34636,15.93959c-14.58112,0.49938 -29.60729,3.45071 -43.43113,6.16835l-0.4899,-2.49063c13.78746,-2.71053 29.01501,-5.70705 43.83388,-6.21455zM513.67604,13.32865c0,2.64293 -0.93496,5.12332 -2.66527,7.40512l-2.02222,-1.53384c1.45109,-1.91349 2.14913,-3.86734 2.14913,-5.87128zM494.39306,31.31428c-17.93512,6.82037 -47.90285,11.08048 -86.73788,11.90468l-0.05331,-2.53776c38.76142,-0.82268 68.37293,-5.07847 85.88922,-11.73952zM518.5429,22.20685c-2.81334,-0.27499 -5.71382,-0.61005 -8.69976,-0.98048l0.31222,-2.51906c2.9741,0.36891 5.85089,0.70109 8.63461,0.97329zM438.79478,5.29054c0,-3.17758 1.74384,-6.09203 4.64264,-8.69798c2.90218,-2.60893 7.08876,-5.03167 12.31183,-7.25441l0.99419,2.33564c-5.09446,2.16822 -8.99844,4.45977 -11.60871,6.80637c-2.61365,2.34959 -3.8016,4.63193 -3.8016,6.81038zM589.47279,35.3879c-0.34098,0.34902 -0.99165,0.91491 -1.85553,1.6083l-1.58901,-1.97983c0.85373,-0.68468 1.40201,-1.17052 1.62962,-1.40311zM586.85322,37.27508c-4.58426,0.11101 -9.23874,0.16787 -13.94907,0.16787v-2.53835c4.69002,0 9.32335,-0.05661 13.88815,-0.16711zM512.17757,14.577c-18.20588,-3.34063 -29.23246,-9.17376 -40.20066,-14.97409l1.18625,-2.24393c10.9242,5.77651 21.66564,11.45403 39.473,14.72131zM471.97691,-0.39709c-5.17908,-2.73856 -10.31923,-5.45592 -16.22089,-7.92621l0.98065,-2.34146c6.02096,2.52063 11.25673,5.29018 16.42649,8.02373zM548.877,32.66671c0.02115,-0.49396 -0.23945,-0.8187 -0.37314,-0.95129c-0.13453,-0.13386 -0.26737,-0.20383 -0.31983,-0.23031c-0.11507,-0.05728 -0.20899,-0.08114 -0.22507,-0.0852c-0.05161,-0.01354 -0.07953,-0.01625 -0.05246,-0.01227c0.03977,0.00575 0.12523,0.01531 0.26991,0.02775c0.28091,0.02428 0.70651,0.05271 1.26494,0.0847c1.1118,0.06388 2.70588,0.13961 4.62825,0.22337c3.84137,0.16753 8.9646,0.36628 14.09121,0.56512l-0.09815,2.5364c-5.12408,-0.19867 -10.25492,-0.39767 -14.10391,-0.56554c-1.92407,-0.08385 -3.53338,-0.16025 -4.66294,-0.22515c-0.56351,-0.03232 -1.01872,-0.06244 -1.33686,-0.08986c-0.15569,-0.01345 -0.30037,-0.02801 -0.4146,-0.04451c-0.04992,-0.00728 -0.13707,-0.02065 -0.22761,-0.04442c-0.03554,-0.00922 -0.14384,-0.03799 -0.26822,-0.10018c-0.05838,-0.02894 -0.19461,-0.10128 -0.33168,-0.2375c-0.13622,-0.13504 -0.39683,-0.46215 -0.37652,-0.9584zM568.16082,32.28858c5.14777,0.1996 10.29723,0.39928 14.14452,0.56732c1.92238,0.08402 3.52492,0.16034 4.64179,0.22498c0.55505,0.03215 1.00265,0.0621 1.31148,0.08952c0.14976,0.0132 0.29276,0.02809 0.40783,0.04594c0.04231,0.00668 0.14976,0.02369 0.26399,0.05982c0.02115,0.00677 0.22676,0.06591 0.42898,0.22803c0.09984,0.0808 0.36637,0.31865 0.45183,0.74399c0.10153,0.50623 -0.12015,0.90086 -0.30714,1.10638l-1.87753,-1.70797c-0.18445,0.20324 -0.40529,0.59558 -0.3046,1.09953c0.08461,0.42289 0.34945,0.65845 0.44675,0.7368c0.1963,0.15738 0.39006,0.21153 0.39598,0.21331c0.08207,0.02614 0.13792,0.03249 0.11084,0.02818c-0.02708,-0.00415 -0.10069,-0.01311 -0.24114,-0.02555c-0.26822,-0.02378 -0.68366,-0.05195 -1.23448,-0.08393c-1.09741,-0.06354 -2.68557,-0.13919 -4.60541,-0.22304c-3.83967,-0.1677 -8.98237,-0.36721 -14.13183,-0.5669zM558.76131,51.44904l-133.75908,-0.82082l0.01608,-2.53826l133.75823,0.82073zM557.29331,49.10412c0.41967,-0.04747 0.84273,-0.10661 1.27002,-0.17667l0.41121,2.50484c-0.46621,0.07657 -0.93157,0.14156 -1.39525,0.1941zM558.56333,48.92745c5.27553,-0.866 10.96735,-3.38827 15.96959,-6.20651c4.98701,-2.80978 9.19897,-5.86214 11.49533,-7.70456l1.58901,1.97983c-2.38859,1.91594 -6.71393,5.04928 -11.83885,7.93623c-5.10885,2.87832 -11.10189,5.56372 -16.80386,6.49986zM558.77655,48.9107l30.21141,0.18538l-0.01523,2.53835l-30.21141,-0.18538zM681.12322,25.9741c-21.71218,6.03128 -58.95482,10.44615 -94.27,11.30098l-0.06092,-2.53759c35.2145,-0.85246 72.22445,-5.25692 93.65234,-11.20917zM588.78913,33.24587c13.20448,-2.00969 27.24832,-7.32821 40.17104,-12.22747l0.89942,2.37352c-12.8635,4.87684 -27.16794,10.30561 -40.68802,12.36336zM628.96017,21.0184c7.01092,-2.65824 13.702,-5.19574 19.6815,-6.96802c5.95581,-1.765 11.35741,-2.82002 15.76145,-2.40847l-0.23691,2.52735c-3.89636,-0.36417 -8.90791,0.56766 -14.8028,2.31489c-5.8712,1.73995 -12.46752,4.24006 -19.50382,6.90777zM664.40312,11.64191c3.75675,0.35114 7.88326,1.87635 11.18988,4.10713c3.27024,2.20709 5.98204,5.27807 6.4491,8.83683l-2.51635,0.33066c-0.32999,-2.50704 -2.33782,-5.02897 -5.35338,-7.06338c-2.97917,-2.01054 -6.70293,-3.37524 -10.00617,-3.6839zM680.44463,23.52832c9.58311,-2.66213 15.61592,-5.58132 19.23644,-8.65813c3.55538,-3.0219 4.79409,-6.19839 4.79409,-9.57964h2.53835c0,4.15781 -1.58985,8.03066 -5.68844,11.51386c-4.03428,3.42821 -10.48253,6.46983 -20.20186,9.1697zM682.0421,24.58588c0.52544,3.99688 0.08207,7.87903 -0.88334,11.10426c-0.95442,3.18893 -2.46474,5.88059 -4.20266,7.37009l-1.65162,-1.92728c1.22348,-1.04885 2.54004,-3.22429 3.42254,-6.17072c0.87065,-2.91005 1.2734,-6.43141 0.79873,-10.04568zM147.30785,-4.01672c0,0.33187 0.13792,0.78604 0.59651,1.38298c0.46113,0.59872 1.19049,1.26822 2.22782,1.99575c2.07383,1.45518 5.18077,3.0087 9.22774,4.62675c8.07702,3.22992 19.64343,6.61836 33.51888,9.97922c27.73483,6.71791 64.51718,13.28334 100.63872,18.24234l-0.34522,2.51483c-36.17569,-4.96653 -73.04688,-11.54593 -100.89086,-18.29015c-13.91438,-3.37033 -25.6187,-6.7922 -33.8641,-10.08934c-4.11551,-1.64544 -7.43313,-3.28455 -9.74302,-4.90578c-1.15579,-0.81069 -2.10767,-1.65035 -2.78203,-2.52607c-0.67435,-0.87752 -1.1228,-1.86306 -1.1228,-2.93052zM293.43292,34.73385c-5.48029,0.38008 -10.53584,0.81718 -15.06002,1.30573l-0.27245,-2.52371c4.56226,-0.49269 9.65164,-0.93242 15.15732,-1.31427zM393.52758,43.36576c-25.29887,0 -62.47889,-3.44081 -100.35527,-8.64062l0.34522,-2.51483c37.83661,5.19439 74.88295,8.6171 100.01005,8.6171zM293.25777,32.2016c13.70623,-0.95061 30.01427,-1.54348 47.24204,-1.69849l0.02285,2.53826c-17.188,0.15459 -33.44358,0.7461 -47.08973,1.69249z" fill="#000000" fill-rule="nonzero" stroke="none" stroke-width="1"/><path d="M7.51411,-7.93869c-51.91243,7.44856 -50.92273,25.99323 21.73206,40.63571c16.61683,3.34887 39.6148,1.75517 63.59636,5.15909c-21.05306,-0.05271 -39.41369,-0.29707 -51.59082,-0.29707c-80.39903,0 -155.81673,-30.6332 -155.81673,-46.2294c25.6907,0 73.71116,0.04843 122.07912,0.73168z" fill="#8b3a83" fill-rule="nonzero" stroke="#000000" stroke-width="2.5"/><path d="M192.64105,11.63904c-2.93602,2.07848 -14.91448,3.43929 -25.87253,4.68401c-24.07792,2.73507 -43.22722,4.91026 49.3091,12.90987c4.40573,0.38092 4.91001,3.51663 0.5449,4.02506c-35.38287,4.12194 -84.31206,4.69687 -123.77999,4.59813c-32.1215,-1.34318 -63.57284,-4.08005 -82.92027,-8.7606c-53.70551,-12.99249 -49.30046,-30.30595 -2.40815,-37.0342c40.33604,0.56979 80.91339,1.58107 108.98413,3.37393c42.37771,2.70664 58.23985,6.5975 75.32716,14.51867c0.95103,0.44091 1.58054,1.14336 0.81566,1.68512z" fill="#543a8b" fill-rule="nonzero" stroke="#000000" stroke-width="2.5"/><text transform="translate(19.20323,192.50924) scale(0.35566,0.35566)" font-size="40" xml:space="preserve" fill="#000000" fill-rule="nonzero" stroke="none" stroke-width="1" stroke-linecap="butt" stroke-linejoin="miter" stroke-miterlimit="10" stroke-dasharray="" stroke-dashoffset="0" font-family="Sans Serif" font-weight="normal" text-anchor="start" style="mix-blend-mode: normal"><tspan x="0" dy="0">Question:</tspan></text><text transform="translate(43.83371,222.86766) scale(0.35566,0.35566)" font-size="40" xml:space="preserve" fill="#000000" fill-rule="nonzero" stroke="none" stroke-width="1" stroke-linecap="butt" stroke-linejoin="miter" stroke-miterlimit="10" stroke-dasharray="" stroke-dashoffset="0" font-family="Sans Serif" font-weight="normal" text-anchor="start" style="mix-blend-mode: normal"><tspan x="0" dy="0">Score:</tspan></text></g></g></svg>