<svg version="1.1" xmlns="http://www.w3.org/2000/svg" xmlns:xlink="http://www.w3.org/1999/xlink" width="22.73498" height="21.29636" viewBox="0,0,22.73498,21.29636"><g transform="translate(-228.88251,-169.48288)"><g data-paper-data="{&quot;isPaintingLayer&quot;:true}" fill-rule="nonzero" stroke-width="1" stroke-linecap="butt" stroke-linejoin="miter" stroke-miterlimit="10" stroke-dasharray="" stroke-dashoffset="0" style="mix-blend-mode: normal"><path d="M236.13769,169.98288h12.22841c1.53455,0 2.75139,1.05687 2.75139,2.33134v15.63368c0,1.2745 -1.21684,2.33134 -2.75139,2.33134h-12.22841c-1.53455,0 -2.75139,-1.05684 -2.75139,-2.33134v-8.08787c0.62028,-0.05041 1.21172,-0.17965 1.77293,-0.38837c0.73633,-0.27389 1.3815,-0.6447 1.93252,-1.11317c0.5515,-0.4689 0.98836,-1.02058 1.3102,-1.65289c0.32479,-0.63819 0.48669,-1.32129 0.48712,-2.04615c0.00042,-0.72509 -0.16149,-1.40841 -0.48731,-2.04676c-0.32259,-0.6321 -0.75933,-1.18363 -1.30984,-1.65245c-0.43778,-0.37281 -0.93565,-0.68361 -1.49217,-0.93285c0.17382,-0.02918 0.35365,-0.0445 0.53792,-0.0445z" fill="#2e94ff" stroke="#000000"/><path d="M241.02906,176.77218h6.11421" fill="none" stroke="#ffffff"/><path d="M238.58339,178.96638h8.5599" fill="none" stroke="#ffffff"/><path d="M247.14328,183.90333h-8.5599" fill="none" stroke="#ffffff"/><path d="M247.14328,181.16058h-8.5599" fill="none" stroke="#ffffff"/><path d="M229.30584,174.96251c0,-2.31594 1.87743,-4.19338 4.19338,-4.19338c2.31594,0 4.19338,1.87743 4.19338,4.19338c0,2.31594 -1.87743,4.19338 -4.19338,4.19338c-2.31594,0 -4.19338,-1.87743 -4.19338,-4.19338z" fill="#fffdfd" stroke="none"/><path d="M234.12423,180.07923c-1.33955,0 -2.5067,-0.44398 -3.50147,-1.33198c-0.99476,-0.888 -1.56514,-1.99709 -1.71112,-3.32735h1.19395c0.13589,1.0095 0.58494,1.8443 1.34712,2.50439c0.76219,0.66003 1.65269,0.99011 2.67153,0.99011c1.13572,0 2.0992,-0.39548 2.8905,-1.18641c0.79134,-0.79087 1.18678,-1.7544 1.18641,-2.8905c-0.00042,-1.1361 -0.39586,-2.0994 -1.18641,-2.88993c-0.79051,-0.79053 -1.75404,-1.18618 -2.8905,-1.18696c-0.66978,0 -1.29586,0.15531 -1.87828,0.46593c-0.58241,0.31062 -1.07262,0.73772 -1.47059,1.2813h1.60163v1.16484h-3.49449v-3.49449h1.16482v1.36867c0.49506,-0.62123 1.09941,-1.10173 1.81305,-1.44147c0.71365,-0.33974 1.46827,-0.50961 2.26385,-0.50961c0.72803,0 1.41002,0.13842 2.04601,0.41526c0.63603,0.27684 1.18929,0.65036 1.6599,1.12056c0.4706,0.4702 0.84429,1.0235 1.12115,1.65988c0.27681,0.63639 0.41504,1.31839 0.41467,2.04602c-0.00036,0.72761 -0.13859,1.40966 -0.41467,2.04601c-0.27608,0.6364 -0.64977,1.18971 -1.12115,1.6599c-0.47139,0.47019 -1.02465,0.84391 -1.6599,1.12115c-0.63519,0.27723 -1.3172,0.41545 -2.04601,0.41467z" fill="#000000" stroke="none"/><path d="M235.12997,177.40867l-2.21316,-2.21321v-3.14502h1.16482v2.67911l1.86375,1.86373z" fill="#2e94ff" stroke="none"/></g></g></svg>