<svg version="1.1" xmlns="http://www.w3.org/2000/svg" xmlns:xlink="http://www.w3.org/1999/xlink" width="501" height="318" viewBox="0,0,501,318"><defs><linearGradient x1="240.84815" y1="26.61894" x2="240.84815" y2="342.61894" gradientUnits="userSpaceOnUse" id="color-1"><stop offset="0" stop-color="#ffdfca"/><stop offset="1" stop-color="#ffffff"/></linearGradient><linearGradient x1="240.00005" y1="97.82918" x2="240.00005" y2="129.40873" gradientUnits="userSpaceOnUse" id="color-2"><stop offset="0" stop-color="#ffede2"/><stop offset="1" stop-color="#ffffff"/></linearGradient></defs><g transform="translate(9.65186,-25.61894)"><g data-paper-data="{&quot;isPaintingLayer&quot;:true}" fill-rule="nonzero" stroke-linecap="butt" stroke-miterlimit="10" stroke-dasharray="" stroke-dashoffset="0" style="mix-blend-mode: normal"><path d="M-8.65186,342.61894v-316h499v316z" fill="url(#color-1)" stroke="#000000" stroke-width="2" stroke-linejoin="miter"/><text transform="translate(160.79284,190.28797) scale(0.30967,0.31536)" font-size="40" xml:space="preserve" fill="#000000" fill-rule="nonzero" stroke="none" stroke-width="1" stroke-linecap="butt" stroke-linejoin="miter" stroke-miterlimit="10" stroke-dasharray="" stroke-dashoffset="0" font-family="Sans Serif" font-weight="normal" text-anchor="start" style="mix-blend-mode: normal"><tspan x="0" dy="0">Select column(s) to practice:</tspan></text><path d="M122.50005,271.23224c0,0 0,-112.60328 0,-142.78977c0,-14.0174 0,-30.78978 0,-30.78978h235c0,0 0,17.4069 0,31.78977c0,30.37557 0,141.78977 0,141.78977z" fill="#ffffff" stroke="#000000" stroke-width="2" stroke-linejoin="miter"/><path d="M122.50005,129.40873v-31.57955h235v31.57955z" fill="url(#color-2)" stroke="#000000" stroke-width="2" stroke-linejoin="miter"/><path d="M158.14886,186.20413c0,1.2253 -1.05538,2.2186 -2.35726,2.2186c-1.30188,0 -2.35726,-0.9933 -2.35726,-2.2186c0,-1.2253 1.05538,-2.2186 2.35726,-2.2186c1.30188,0 2.35726,0.9933 2.35726,2.2186z" fill="#000000" stroke="none" stroke-width="0" stroke-linejoin="miter"/><text transform="translate(164.04853,165.70988) scale(0.31061,0.31061)" font-size="40" xml:space="preserve" fill="#000000" fill-rule="nonzero" stroke="none" stroke-width="1" stroke-linecap="butt" stroke-linejoin="miter" stroke-miterlimit="10" stroke-dasharray="" stroke-dashoffset="0" font-family="Sans Serif" font-weight="normal" text-anchor="start" style="mix-blend-mode: normal"><tspan x="0" dy="0">Show tips:</tspan></text><text transform="translate(149.13638,120.266) scale(0.42336,0.42336)" font-size="40" xml:space="preserve" fill="#33302d" fill-rule="nonzero" stroke="none" stroke-width="1" stroke-linecap="butt" stroke-linejoin="miter" stroke-miterlimit="10" stroke-dasharray="" stroke-dashoffset="0" font-family="Sans Serif" font-weight="normal" text-anchor="start" style="mix-blend-mode: normal"><tspan x="0" dy="0">Setting</tspan></text><path d="M134.42932,123.58906c-1.48606,-0.44245 -2.80886,-1.26384 -3.85627,-2.35223c0.39074,-0.4631 0.62625,-1.06144 0.62625,-1.7148c0,-1.4695 -1.19128,-2.66075 -2.66077,-2.66075c-0.08889,0 -0.17676,0.00438 -0.26342,0.0129c-0.11805,-0.57715 -0.18004,-1.17469 -0.18004,-1.78675c0,-0.92709 0.14225,-1.82098 0.40611,-2.66101c0.01243,0.00017 0.02487,0.00026 0.03734,0.00026c1.46949,0 2.66077,-1.19126 2.66077,-2.66076c0,-0.42185 -0.09822,-0.82074 -0.27293,-1.17515c1.02569,-0.9537 2.27756,-1.66745 3.6663,-2.05187c0.44002,0.86254 1.33684,1.45321 2.37156,1.45321c1.03472,0 1.93153,-0.59067 2.37156,-1.45321c1.38874,0.38442 2.64066,1.09817 3.6663,2.05187c-0.17471,0.35441 -0.27289,0.75331 -0.27289,1.17515c0,1.4695 1.19125,2.66076 2.66075,2.66076c0.01247,0 0.02491,-0.00009 0.03734,-0.00026c0.26386,0.84003 0.40614,1.73392 0.40614,2.66101c0,0.61206 -0.06203,1.2096 -0.18008,1.78675c-0.08664,-0.00852 -0.17451,-0.0129 -0.2634,-0.0129c-1.4695,0 -2.66075,1.19125 -2.66075,2.66075c0,0.65336 0.23547,1.2517 0.62619,1.7148c-1.0474,1.0884 -2.3702,1.90978 -3.85626,2.35223c-0.34296,-1.07286 -1.34822,-1.84976 -2.53491,-1.84976c-1.18669,0 -2.1919,0.7769 -2.53491,1.84976z" fill="#2f88ff" stroke="#000000" stroke-width="1" stroke-linejoin="round"/><path d="M133.86004,115.08738c0,-1.71442 1.38981,-3.10422 3.10418,-3.10422c1.71442,0 3.10422,1.3898 3.10422,3.10422c0,1.71442 -1.3898,3.10422 -3.10422,3.10422c-1.71437,0 -3.10418,-1.3898 -3.10418,-3.10422z" fill="#43ccf8" stroke="#ffffff" stroke-width="1.5" stroke-linejoin="round"/><path d="M158.25603,161.46451c0,1.22529 -1.05537,2.21859 -2.35726,2.21859c-1.30188,0 -2.35726,-0.9933 -2.35726,-2.21859c0,-1.22529 1.05538,-2.21859 2.35726,-2.21859c1.30188,0 2.35726,0.9933 2.35726,2.21859z" fill="#000000" stroke="none" stroke-width="0" stroke-linejoin="miter"/><text transform="translate(163.99437,190.28797) scale(0.30967,0.31536)" font-size="40" xml:space="preserve" fill="#000000" fill-rule="nonzero" stroke="none" stroke-width="1" stroke-linecap="butt" stroke-linejoin="miter" stroke-miterlimit="10" stroke-dasharray="" stroke-dashoffset="0" font-family="Sans Serif" font-weight="normal" text-anchor="start" style="mix-blend-mode: normal"><tspan x="0" dy="0">Practice column(s):</tspan></text></g></g></svg>