<svg version="1.1" xmlns="http://www.w3.org/2000/svg" xmlns:xlink="http://www.w3.org/1999/xlink" width="223.04453" height="226.9142" viewBox="0,0,223.04453,226.9142"><defs><linearGradient x1="233.77772" y1="80.60663" x2="233.77772" y2="102.759" gradientUnits="userSpaceOnUse" id="color-1"><stop offset="0" stop-color="#5440a1"/><stop offset="1" stop-color="#000000"/></linearGradient></defs><g transform="translate(-130.90149,-62.60944)"><g data-paper-data="{&quot;isPaintingLayer&quot;:true}" fill-rule="nonzero" stroke-linecap="butt" stroke-linejoin="miter" stroke-miterlimit="10" stroke-dasharray="" stroke-dashoffset="0" style="mix-blend-mode: normal"><path d="M132.05596,134.80546c-0.34806,-0.76423 -0.3149,-1.6477 0.09553,-2.42105c0.41912,-1.75331 1.9321,-3.13315 6.73062,-1.5926c3.09847,0.85863 7.15524,5.38165 11.31796,7.50914c15.14219,7.73893 36.15355,12.68668 51.07362,22.42709l-5.15843,53.53091c-31.3329,-31.56694 -47.3881,-42.7929 -64.0593,-79.45349z" data-paper-data="{&quot;index&quot;:null}" fill="#9966ff" stroke="#ffffff" stroke-width="2.5"/><path d="M282.99074,183.76562l-14.94504,-35.58083c24.86866,-7.89188 41.29591,-8.80472 62.56049,-12.43053c3.12829,-0.5334 6.00132,-2.37696 9.22656,-3.95141c10.01945,-1.46487 8.76171,4.49815 2.56243,12.4399c-22.17204,18.07803 -35.28794,26.45181 -59.40445,39.52288z" data-paper-data="{&quot;index&quot;:null}" fill="#9966ff" stroke="#ffffff" stroke-width="2.5"/><path d="M304.14581,281.31294c-11.44525,4.13587 -6.88256,-1.60293 -19.26275,-10.45781c-15.85059,-11.33733 -35.30931,-19.54688 -49.76149,-19.54688c-14.45217,0 -43.12596,16.3083 -47.78796,18.8414c-4.66199,2.5331 -12.03223,19.03219 -22.6263,14.01677c-6.64064,-4.45355 -7.8711,-1.16908 -9.22819,-8.51012c-1.44878,-7.837 6.8108,-17.8045 6.3559,-26.19367c-3.21857,-16.76519 -10.39033,-42.81867 -8.13841,-60.30097c5.66657,-43.99139 16.99576,-74.98083 31.94136,-95.74935c9.41816,-13.0877 24.24236,-29.55286 45.68752,-29.55286c47.08611,6.75494 73.99998,45.0411 89.97635,107.23468c6.51237,38.41022 1.9998,57.64827 -4.84233,83.67044c-1.80794,6.87599 3.54785,24.91732 0.50783,29.15284z" data-paper-data="{&quot;index&quot;:null}" fill="#9966ff" stroke="#ffffff" stroke-width="2.5"/><path d="M246.72667,120.40727c3.95785,-0.3668 7.19877,1.89725 7.4696,4.81967c0.27083,2.92241 -2.49883,5.74349 -6.45668,6.11028c-3.95785,0.3668 -7.19877,-1.89725 -7.4696,-4.81967c-0.27083,-2.92241 2.49883,-5.74349 6.45668,-6.11028z" data-paper-data="{&quot;index&quot;:null}" fill="#000000" stroke="#4385f4" stroke-width="2"/><path d="M229.50529,165.96765c0.75897,-0.41205 1.83869,-0.06489 3.05641,-0.06489c1.21772,0 2.29743,-0.34716 3.05641,0.06489c0.76922,0.41796 1.96142,0.93641 1.96142,1.42952c0,0.49311 -1.19219,1.01155 -1.96142,1.42952c-0.75897,0.41205 -1.83869,0.27039 -3.05641,0.27039c-1.21772,0 -2.29743,0.14166 -3.05641,-0.27039c-0.76922,-0.41796 -2.37244,-1.14192 -2.37244,-1.63503c0,-0.49311 1.60321,-0.80604 2.37244,-1.22401z" data-paper-data="{&quot;index&quot;:null}" fill="#ff4a4a" stroke="#f54242" stroke-width="1"/><path d="M208.99155,121.72859c3.90451,-0.74428 7.34743,1.19886 7.89698,4.08188c0.54956,2.88303 -1.93709,5.95647 -5.84159,6.70075c-3.90451,0.74428 -7.34743,-1.19886 -7.89698,-4.08188c-0.54956,-2.88303 1.93709,-5.95647 5.84159,-6.70075z" data-paper-data="{&quot;index&quot;:null}" fill="#000000" stroke="#4385f4" stroke-width="2"/><path d="M173.54213,278.99617c0,5.1238 -4.15366,9.27747 -9.27747,9.27747c-5.1238,0 -9.27747,-4.15366 -9.27747,-9.27747c0,-5.1238 4.15366,-9.27747 9.27747,-9.27747c5.1238,0 9.27747,4.15366 9.27747,9.27747z" fill="#5420be" stroke="#ffffff" stroke-width="2.5"/><path d="M180.97716,103.08887c0,0 4.09947,-6.37355 6.00865,-9.18733c2.0837,-3.07099 7.11533,-8.90106 7.11533,-8.90106c0,0 8.98923,-7.66728 36.74735,-8.82432c28.32419,-1.18064 43.18433,7.70391 43.18433,7.70391c0,0 5.37202,5.31515 7.93607,8.20191c2.41112,2.71459 7.75065,8.63389 7.75065,8.63389c0,0 -28.62212,4.70142 -56.82791,4.70142c-27.91044,0 -51.91447,-2.32842 -51.91447,-2.32842z" fill="url(#color-1)" stroke="#ffffff" stroke-width="0.5"/><path d="M316.39187,278.61141c0,5.12381 -4.15367,9.27747 -9.27747,9.27747c-5.1238,0 -9.27747,-4.15366 -9.27747,-9.27747c0,-5.12381 4.15366,-9.27747 9.27747,-9.27747c5.12381,0 9.27747,4.15366 9.27747,9.27747z" fill="#5420be" stroke="#ffffff" stroke-width="2.5"/><path d="M352.56427,133.60539c0.74189,3.27895 -1.72444,6.63117 -5.5087,7.4874c-3.78426,0.85623 -7.45344,-1.10777 -8.19534,-4.38672c-0.74189,-3.27895 1.72443,-6.63117 5.5087,-7.4874c3.78427,-0.85623 7.45344,1.10777 8.19534,4.38672z" fill="#5420be" stroke="#ffffff" stroke-width="2.5"/><path d="M145.87505,139.29574c-1.02821,3.20074 -4.85632,4.83346 -8.55031,3.64679c-3.69399,-1.18666 -5.85504,-4.74335 -4.82683,-7.94409c1.02821,-3.20074 4.8563,-4.83346 8.5503,-3.64679c3.694,1.18667 5.85505,4.74335 4.82684,7.94408z" fill="#5420be" stroke="#ffffff" stroke-width="2.5"/></g></g></svg>