<svg version="1.1" xmlns="http://www.w3.org/2000/svg" xmlns:xlink="http://www.w3.org/1999/xlink" width="208.34649" height="236.96713" viewBox="0,0,208.34649,236.96713"><g transform="translate(-135.82675,-62.60943)"><g data-paper-data="{&quot;isPaintingLayer&quot;:true}" fill-rule="nonzero" stroke-linecap="butt" stroke-linejoin="miter" stroke-miterlimit="10" stroke-dasharray="" stroke-dashoffset="0" style="mix-blend-mode: normal"><path d="M141.81521,237.79916c-0.75803,0.36138 -1.64195,0.34366 -2.42237,-0.0532c-1.76037,-0.38841 -3.16643,-1.87703 -1.71002,-6.70175c3.60279,-13.94389 16.63865,-43.48071 28.84094,-62.90539l53.61291,4.22184c-31.01437,31.87994 -41.95793,48.12895 -78.32147,65.43849z" data-paper-data="{&quot;index&quot;:null}" fill="#9966ff" stroke="#ffffff" stroke-width="2.5"/><path d="M281.67497,181.64872l33.10014,-19.84264c13.0092,26.95391 19.81859,41.97943 27.50575,67.9716c2.87179,9.71022 -4.31253,10.07584 -13.05358,5.0662c-21.04125,-19.38246 -31.19143,-31.17743 -47.55231,-53.19516z" data-paper-data="{&quot;index&quot;:null}" fill="#9966ff" stroke="#ffffff" stroke-width="2.5"/><path d="M311.51163,291.83869c-6.06049,8.44367 -19.32144,8.85488 -31.70163,0c-15.85059,-11.33733 -27.03937,-24.06448 -41.49155,-24.06448c-14.45217,0 -52.09023,25.65519 -56.75223,28.18829c-4.66199,2.5331 -20.26521,3.98884 -24.39758,-3.18048c-21.91137,-62.06103 1.42975,-161.79536 28.4693,-199.36973c9.41816,-13.0877 24.24236,-29.55286 45.68752,-29.55286c47.08611,6.75494 73.99998,45.0411 89.97635,107.23468c8.23317,48.55958 4.75477,100.47975 -9.79019,120.74457z" data-paper-data="{&quot;index&quot;:null}" fill="#9966ff" stroke="#ffffff" stroke-width="2.5"/><path d="M237.85225,108.18873c3.97481,0 6.99298,2.55345 6.99298,5.48839c0,2.93494 -3.01817,5.48839 -6.99298,5.48839c-3.97481,0 -6.99298,-2.55345 -6.99298,-5.48839c0,-2.93494 3.01817,-5.48839 6.99298,-5.48839z" data-paper-data="{&quot;index&quot;:null}" fill="#000000" stroke="#4385f4" stroke-width="2"/><path d="M188.90133,108.18873c3.31187,0 5.59439,1.87948 5.59439,3.79965c0,1.92018 -2.28251,3.79965 -5.59439,3.79965c-3.31187,0 -5.59439,-1.87948 -5.59439,-3.79965c0,-1.92018 2.28251,-3.79965 5.59439,-3.79965z" data-paper-data="{&quot;index&quot;:null}" fill="#000000" stroke="#4385f4" stroke-width="2"/><path d="M199.47525,132.93461c0.75897,-0.41205 1.83869,-0.68141 3.05641,-0.68141c1.21772,0 2.29743,0.26936 3.05641,0.68141c0.76922,0.41796 1.13939,0.93641 1.13939,1.42952c0,0.49311 -0.37016,1.01155 -1.13939,1.42952c-0.75897,0.41205 -1.83869,0.68141 -3.05641,0.68141c-1.21772,0 -2.29743,-0.26936 -3.05641,-0.68141c-0.76922,-0.41796 -1.13939,-0.93641 -1.13939,-1.42952c0,-0.49311 0.37016,-1.01155 1.13939,-1.42952z" data-paper-data="{&quot;index&quot;:null}" fill="#ff4a4a" stroke="#f54242" stroke-width="1"/><g stroke="#000000"><path d="M272.87163,77.06727c0,4.09867 -4.09624,11.26518 -10.92737,11.26518c-6.83113,0 -13.81028,-7.16651 -13.81028,-11.26518c0,-4.09867 6.01819,-11.26518 12.84931,-11.26518c6.83113,0 11.88835,7.16651 11.88835,11.26518z" fill="#c10069" stroke-width="2"/><path d="M228.86142,65.40456c6.83113,0 12.84931,7.16651 12.84931,11.26518c0,4.09867 -6.97916,11.26518 -13.81028,11.26518c-6.83113,0 -10.92737,-7.16651 -10.92737,-11.26518c0,-4.09867 5.05722,-11.26518 11.88834,-11.26518z" data-paper-data="{&quot;index&quot;:null}" fill="#c10069" stroke-width="2"/><path d="M249.29011,77.64098c0,3.80319 -1.84489,6.88628 -4.12068,6.88628c-2.27579,0 -4.12068,-3.0831 -4.12068,-6.88628c0,-3.80319 1.84489,-6.88628 4.12068,-6.88628c2.27579,0 4.12068,3.0831 4.12068,6.88628z" fill="#e000ff" stroke-width="1.5"/></g></g></g></svg>