<svg version="1.1" xmlns="http://www.w3.org/2000/svg" xmlns:xlink="http://www.w3.org/1999/xlink" width="213.15898" height="226.9142" viewBox="0,0,213.15898,226.9142"><defs><linearGradient x1="233.77772" y1="80.60663" x2="233.77772" y2="102.759" gradientUnits="userSpaceOnUse" id="color-1"><stop offset="0" stop-color="#5440a1"/><stop offset="1" stop-color="#000000"/></linearGradient></defs><g transform="translate(-136.42313,-62.60944)"><g data-paper-data="{&quot;isPaintingLayer&quot;:true}" fill-rule="nonzero" stroke-linecap="butt" stroke-linejoin="miter" stroke-miterlimit="10" stroke-dasharray="" stroke-dashoffset="0" style="mix-blend-mode: normal"><path d="M142.47615,237.90226c-0.75092,0.37592 -1.63502,0.37525 -2.42294,-0.00649c-1.76753,-0.35439 -3.20204,-1.81563 -1.83891,-6.66753c3.33328,-14.01076 15.79725,-43.79342 27.62277,-63.44974l53.68434,3.1874c-30.39396,32.47197 -41.02221,48.92895 -77.04527,66.93636z" data-paper-data="{&quot;index&quot;:null}" fill="#9966ff" stroke="#ffffff" stroke-width="2.5"/><path d="M281.97892,179.41074l30.85979,-23.17375c15.73881,25.45668 24.07222,39.69355 34.41786,64.74654c3.86496,9.35936 -3.24252,10.46932 -12.45668,6.3948c-22.94088,-17.09182 -34.2614,-27.76857 -52.82098,-47.96761z" data-paper-data="{&quot;index&quot;:null}" fill="#9966ff" stroke="#ffffff" stroke-width="2.5"/><path d="M304.14581,281.31294c-11.44525,4.13587 -6.88256,-1.60293 -19.26275,-10.45781c-15.85059,-11.33733 -35.30931,-19.54688 -49.76149,-19.54688c-14.45217,0 -43.12596,16.3083 -47.78796,18.8414c-4.66199,2.5331 -12.03223,19.03219 -22.6263,14.01677c-6.64064,-4.45355 -7.8711,-1.16908 -9.22819,-8.51012c-1.44878,-7.837 5.65607,-16.64977 5.20117,-25.03894c-0.92889,-17.13027 -6.73582,-48.0943 -5.76846,-66.06955c2.28321,-42.426 15.91428,-70.55283 30.72614,-91.13551c9.41816,-13.0877 24.24236,-29.55286 45.68752,-29.55286c47.08611,6.75494 73.99998,45.0411 89.97635,107.23468c6.51237,38.41022 1.9998,57.64827 -4.84233,83.67044c-1.80794,6.87599 3.54785,24.91732 0.50783,29.15284z" data-paper-data="{&quot;index&quot;:null}" fill="#9966ff" stroke="#ffffff" stroke-width="2.5"/><path d="M244.64868,122.75254c3.51943,-1.84737 7.37857,-0.9892 8.74264,1.60949c1.36406,2.59869 -0.12156,6.26235 -3.64099,8.10971c-3.51943,1.84737 -7.37857,0.9892 -8.74264,-1.60949c-1.36406,-2.59869 0.12156,-6.26235 3.64099,-8.10971z" data-paper-data="{&quot;index&quot;:null}" fill="#000000" stroke="#4385f4" stroke-width="2"/><path d="M228.88877,162.26851c0.75897,-0.41205 1.83869,-0.68141 3.05641,-0.68141c1.21772,0 2.29743,0.26936 3.05641,0.68141c0.76922,0.41796 1.13939,0.93641 1.13939,1.42952c0,0.49311 -0.37016,1.01155 -1.13939,1.42952c-0.75897,0.41205 -1.83869,0.68141 -3.05641,0.68141c-1.21772,0 -2.29743,-0.26936 -3.05641,-0.68141c-0.76922,-0.41796 -1.13939,-0.93641 -1.13939,-1.42952c0,-0.49311 0.37016,-1.01155 1.13939,-1.42952z" data-paper-data="{&quot;index&quot;:null}" fill="#ff4a4a" stroke="#f54242" stroke-width="1"/><path d="M208.37438,120.16562c3.78951,-1.19947 7.43753,0.32416 8.32319,3.12227c0.88567,2.79812 -1.22124,6.14332 -5.01075,7.34279c-3.78951,1.19947 -7.43753,-0.32416 -8.32319,-3.12227c-0.88567,-2.79812 1.22124,-6.14332 5.01075,-7.34279z" data-paper-data="{&quot;index&quot;:null}" fill="#000000" stroke="#4385f4" stroke-width="2"/><path d="M173.54213,278.99617c0,5.1238 -4.15366,9.27747 -9.27747,9.27747c-5.1238,0 -9.27747,-4.15366 -9.27747,-9.27747c0,-5.1238 4.15366,-9.27747 9.27747,-9.27747c5.1238,0 9.27747,4.15366 9.27747,9.27747z" fill="#5420be" stroke="#ffffff" stroke-width="2.5"/><path d="M180.97716,103.08887c0,0 4.09947,-6.37355 6.00865,-9.18733c2.0837,-3.07099 7.11533,-8.90106 7.11533,-8.90106c0,0 8.98923,-7.66728 36.74735,-8.82432c28.32419,-1.18064 43.18433,7.70391 43.18433,7.70391c0,0 5.37202,5.31515 7.93607,8.20191c2.41112,2.71459 7.75065,8.63389 7.75065,8.63389c0,0 -28.62212,4.70142 -56.82791,4.70142c-27.91044,0 -51.91447,-2.32842 -51.91447,-2.32842z" fill="url(#color-1)" stroke="#ffffff" stroke-width="0.5"/><path d="M316.39187,278.61141c0,5.12381 -4.15367,9.27747 -9.27747,9.27747c-5.1238,0 -9.27747,-4.15366 -9.27747,-9.27747c0,-5.12381 4.15366,-9.27747 9.27747,-9.27747c5.12381,0 9.27747,4.15366 9.27747,9.27747z" fill="#5420be" stroke="#ffffff" stroke-width="2.5"/><text transform="translate(202.18134,217.65106) scale(1.79258,1.46242)" font-size="40" xml:space="preserve" fill="#ffffff" fill-rule="nonzero" stroke="none" stroke-width="1" stroke-linecap="butt" stroke-linejoin="miter" stroke-miterlimit="10" stroke-dasharray="" stroke-dashoffset="0" font-family="Sans Serif" font-weight="normal" text-anchor="start" style="mix-blend-mode: normal"><tspan x="0" dy="0">↻</tspan></text></g></g></svg>