<svg version="1.1" xmlns="http://www.w3.org/2000/svg" xmlns:xlink="http://www.w3.org/1999/xlink" width="15.29716" height="6.79284" viewBox="0,0,15.29716,6.79284"><g transform="translate(-286.3887,-158.70657)"><g data-paper-data="{&quot;isPaintingLayer&quot;:true}" fill-rule="nonzero" stroke="none" stroke-width="0" stroke-linecap="butt" stroke-linejoin="miter" stroke-miterlimit="10" stroke-dasharray="" stroke-dashoffset="0" style="mix-blend-mode: normal"><path d="M287.36431,165.4994c0,0 -0.97561,-2.24608 -0.97561,-3.68369c0,-1.43761 0.97561,-3.10202 0.97561,-3.10202h6.78572v6.78572z" fill="#1e45f7"/><path d="M293.92454,165.49229v-6.78572h6.78571c0,0 0.97561,1.66441 0.97561,3.10202c0,1.43761 -0.97561,3.6837 -0.97561,3.6837z" data-paper-data="{&quot;index&quot;:null}" fill="#1e45f7"/><path d="M298.30424,162.20839c0,0.81218 -0.62548,1.47058 -1.39706,1.47058c-0.77157,0 -1.39706,-0.6584 -1.39706,-1.47058c0,-0.81218 0.62548,-1.47059 1.39706,-1.47059c0.77157,0 1.39706,0.6584 1.39706,1.47059z" fill="#ffffff"/></g></g></svg>