<svg version="1.1" xmlns="http://www.w3.org/2000/svg" xmlns:xlink="http://www.w3.org/1999/xlink" width="24.8496" height="23.94373" viewBox="0,0,24.8496,23.94373"><g transform="translate(-227.5752,-168.02814)"><g data-paper-data="{&quot;isPaintingLayer&quot;:true}" fill="#eaa700" fill-rule="nonzero" stroke-linecap="butt" stroke-linejoin="round" stroke-miterlimit="10" stroke-dasharray="" stroke-dashoffset="0" style="mix-blend-mode: normal"><path d="M236.66319,191.22188c-1.95615,-0.58242 -3.69739,-1.66362 -5.07614,-3.09632c0.51434,-0.6096 0.82434,-1.39722 0.82434,-2.25725c0,-1.93435 -1.56812,-3.50244 -3.50246,-3.50244c-0.11701,0 -0.23269,0.00577 -0.34674,0.01698c-0.15538,-0.75973 -0.23699,-1.54628 -0.23699,-2.35197c0,-1.22036 0.18724,-2.39702 0.53458,-3.50278c0.01635,0.00023 0.03275,0.00033 0.04915,0.00033c1.93434,0 3.50246,-1.56809 3.50246,-3.50244c0,-0.55529 -0.12928,-1.08038 -0.35926,-1.5469c1.35016,-1.25539 2.99803,-2.19491 4.82607,-2.70094c0.57922,1.13541 1.75973,1.9129 3.12177,1.9129c1.36203,0 2.54254,-0.77751 3.12177,-1.9129c1.82805,0.50603 3.47598,1.44555 4.82607,2.70094c-0.22998,0.46652 -0.35921,0.99161 -0.35921,1.5469c0,1.93435 1.56809,3.50244 3.50244,3.50244c0.01642,0 0.03278,-0.00011 0.04915,-0.00033c0.34734,1.10576 0.53461,2.28241 0.53461,3.50278c0,0.80568 -0.08165,1.59224 -0.23704,2.35197c-0.11404,-0.0112 -0.2297,-0.01698 -0.34672,-0.01698c-1.93435,0 -3.50244,1.56809 -3.50244,3.50244c0,0.86004 0.30996,1.64767 0.82427,2.25725c-1.37873,1.4327 -3.11998,2.51391 -5.07612,3.09632c-0.45145,-1.41224 -1.77471,-2.43489 -3.33679,-2.43489c-1.56209,0 -2.88528,1.02266 -3.33679,2.43489z" stroke="#000000" stroke-width="1.5"/><path d="M235.91383,179.87501c0,-2.25675 1.82945,-4.0862 4.08614,-4.0862c2.25675,0 4.0862,1.82945 4.0862,4.0862c0,2.25675 -1.82945,4.0862 -4.0862,4.0862c-2.25668,0 -4.08614,-1.82945 -4.08614,-4.0862z" stroke="#ffffff" stroke-width="2"/></g></g></svg>