<svg version="1.1" xmlns="http://www.w3.org/2000/svg" xmlns:xlink="http://www.w3.org/1999/xlink" width="22.75" height="22.75" viewBox="0,0,22.75,22.75"><g transform="translate(-228.1875,-168.1875)"><g data-paper-data="{&quot;isPaintingLayer&quot;:true}" stroke-width="1" stroke-linecap="butt" stroke-linejoin="miter" stroke-miterlimit="10" stroke-dasharray="" stroke-dashoffset="0" style="mix-blend-mode: normal"><path d="M239.5625,190.4375c-6.0061,0 -10.875,-4.8689 -10.875,-10.875c0,-6.0061 4.8689,-10.875 10.875,-10.875c6.0061,0 10.875,4.8689 10.875,10.875c0,6.0061 -4.8689,10.875 -10.875,10.875z" fill="#2e8aff" fill-rule="nonzero" stroke="#000000"/><path d="M233.76394,184.41083h0.32821v0.32821h-0.32821zM234.09216,184.41083h0.32821v0.32821h-0.32821zM234.42037,184.41083h0.32828v0.32821h-0.32828zM234.74865,184.41083h0.32821v0.32821h-0.32821zM234.09216,184.73903h0.32821v0.32828h-0.32821zM233.76394,184.73903h0.32821v0.32828h-0.32821zM234.42037,184.73903h0.32828v0.32828h-0.32828zM234.74865,184.73903h0.32821v0.32828h-0.32821zM235.07685,185.06731h0.32821v0.32821h-0.32821zM235.40507,184.73903h0.32821v0.32828h-0.32821zM235.07685,184.73903h0.32821v0.32828h-0.32821zM235.40507,185.06731h0.32821v0.32821h-0.32821zM235.07685,185.39552h0.32821v0.32821h-0.32821zM235.40507,185.39552h0.32821v0.32821h-0.32821zM235.40507,185.72373h0.32821v0.32821h-0.32821zM235.07685,185.72373h0.32821v0.32821h-0.32821zM233.76394,185.72373h0.32821v0.32821h-0.32821zM233.43574,185.72373h0.32821v0.32821h-0.32821zM233.43574,185.39552h0.32821v0.32821h-0.32821zM233.76394,185.39552h0.32821v0.32821h-0.32821zM233.76394,185.06731h0.32821v0.32821h-0.32821zM233.43574,185.06731h0.32821v0.32821h-0.32821zM233.43574,184.73903h0.32821v0.32828h-0.32821zM233.43574,184.41083h0.32821v0.32821h-0.32821zM233.43574,184.08261h0.32821v0.32821h-0.32821zM233.76394,184.08261h0.32821v0.32821h-0.32821zM233.43574,182.76977h0.32821v0.32821h-0.32821zM233.76394,182.76977h0.32821v0.32821h-0.32821zM234.09216,182.76977h0.32821v0.32821h-0.32821zM234.42037,182.76977h0.32828v0.32821h-0.32828zM234.74865,182.76977h0.32821v0.32821h-0.32821zM235.07685,182.76977h0.32821v0.32821h-0.32821zM235.07685,183.09798h0.32821v0.32821h-0.32821zM234.74865,183.09798h0.32821v0.32821h-0.32821zM234.42037,183.09798h0.32828v0.32821h-0.32828zM234.09216,183.09798h0.32821v0.32821h-0.32821zM233.76394,183.09798h0.32821v0.32821h-0.32821zM233.43574,183.09798h0.32821v0.32821h-0.32821zM233.43574,183.42619h0.32821v0.32821h-0.32821zM233.43574,183.7544h0.32821v0.32821h-0.32821zM233.76394,183.7544h0.32821v0.32821h-0.32821zM233.76394,183.42619h0.32821v0.32821h-0.32821zM235.07685,183.42619h0.32821v0.32821h-0.32821zM235.40507,183.42619h0.32821v0.32821h-0.32821zM235.40507,183.09798h0.32821v0.32821h-0.32821zM235.40507,183.7544h0.32821v0.32821h-0.32821zM235.07685,183.7544h0.32821v0.32821h-0.32821zM235.07685,184.08261h0.32821v0.32821h-0.32821zM235.40507,184.08261h0.32821v0.32821h-0.32821zM235.07685,184.41083h0.32821v0.32821h-0.32821zM236.71877,183.42619h0.32828v0.32821h-0.32828zM236.39055,183.42619h0.32821v0.32821h-0.32821zM236.39055,183.7544h0.32821v0.32821h-0.32821zM236.71877,183.7544h0.32828v0.32821h-0.32828zM237.04703,183.42619h0.32821v0.32821h-0.32821zM237.37525,183.42619h0.32821v0.32821h-0.32821zM237.70345,183.42619h0.32821v0.32821h-0.32821zM237.70345,183.7544h0.32821v0.32821h-0.32821zM237.37525,183.7544h0.32821v0.32821h-0.32821zM238.03166,183.7544h0.32821v0.32821h-0.32821zM238.03166,184.08261h0.32821v0.32821h-0.32821zM238.03166,185.39552h0.32821v0.32821h-0.32821zM237.70345,185.39552h0.32821v0.32821h-0.32821zM237.70345,184.08261h0.32821v0.32821h-0.32821zM237.37525,185.39552h0.32821v0.32821h-0.32821zM237.70345,185.72373h0.32821v0.32821h-0.32821zM237.37525,185.72373h0.32821v0.32821h-0.32821zM237.04703,185.72373h0.32821v0.32821h-0.32821zM236.71877,185.72373h0.32828v0.32821h-0.32828zM236.39055,185.72373h0.32821v0.32821h-0.32821zM236.39055,185.39552h0.32821v0.32821h-0.32821zM236.71877,185.39552h0.32828v0.32821h-0.32828zM236.39055,185.06731h0.32821v0.32821h-0.32821zM236.06235,185.39552h0.32821v0.32821h-0.32821zM236.06235,185.06731h0.32821v0.32821h-0.32821zM236.06235,184.73903h0.32821v0.32828h-0.32821zM236.06235,184.41083h0.32821v0.32821h-0.32821zM236.06235,184.08261h0.32821v0.32821h-0.32821zM236.06235,183.7544h0.32821v0.32821h-0.32821zM236.39055,184.08261h0.32821v0.32821h-0.32821zM236.39055,184.41083h0.32821v0.32821h-0.32821zM236.39055,184.73903h0.32821v0.32828h-0.32821zM237.04703,185.39552h0.32821v0.32821h-0.32821zM237.04703,183.7544h0.32821v0.32821h-0.32821zM237.70345,184.41083h0.32821v0.32821h-0.32821zM238.03166,184.41083h0.32821v0.32821h-0.32821zM236.71877,184.73903h0.32828v0.32828h-0.32828zM237.04703,184.73903h0.32821v0.32828h-0.32821zM237.37525,184.73903h0.32821v0.32828h-0.32821zM237.70345,184.73903h0.32821v0.32828h-0.32821zM238.03166,184.73903h0.32821v0.32828h-0.32821zM237.37525,184.41083h0.32821v0.32821h-0.32821zM237.04703,184.41083h0.32821v0.32821h-0.32821zM236.71877,184.41083h0.32828v0.32821h-0.32828zM239.34536,183.42619h0.32828v0.32821h-0.32828zM239.01715,183.42619h0.32821v0.32821h-0.32821zM239.01715,183.7544h0.32821v0.32821h-0.32821zM239.34536,183.7544h0.32828v0.32821h-0.32828zM239.67364,183.42619h0.32821v0.32821h-0.32821zM240.00184,183.42619h0.32821v0.32821h-0.32821zM240.33006,183.42619h0.32821v0.32821h-0.32821zM240.33006,183.7544h0.32821v0.32821h-0.32821zM240.00184,183.7544h0.32821v0.32821h-0.32821zM240.65827,183.7544h0.32821v0.32821h-0.32821zM240.65827,184.08261h0.32821v0.32821h-0.32821zM240.65827,185.06731h0.32821v0.32821h-0.32821zM240.65827,185.39552h0.32821v0.32821h-0.32821zM240.33006,185.39552h0.32821v0.32821h-0.32821zM240.33006,185.06731h0.32821v0.32821h-0.32821zM240.33006,184.08261h0.32821v0.32821h-0.32821zM240.00184,185.39552h0.32821v0.32821h-0.32821zM240.33006,185.72373h0.32821v0.32821h-0.32821zM240.00184,185.72373h0.32821v0.32821h-0.32821zM239.67364,185.72373h0.32821v0.32821h-0.32821zM239.34536,185.72373h0.32828v0.32821h-0.32828zM239.01715,185.72373h0.32821v0.32821h-0.32821zM239.01715,185.39552h0.32821v0.32821h-0.32821zM239.34536,185.39552h0.32828v0.32821h-0.32828zM239.01715,185.06731h0.32821v0.32821h-0.32821zM238.68895,185.39552h0.32821v0.32821h-0.32821zM238.68895,185.06731h0.32821v0.32821h-0.32821zM238.68895,184.73903h0.32821v0.32828h-0.32821zM238.68895,184.41083h0.32821v0.32821h-0.32821zM238.68895,184.08261h0.32821v0.32821h-0.32821zM238.68895,183.7544h0.32821v0.32821h-0.32821zM239.01715,184.08261h0.32821v0.32821h-0.32821zM239.01715,184.41083h0.32821v0.32821h-0.32821zM239.01715,184.73903h0.32821v0.32828h-0.32821zM239.67364,185.39552h0.32821v0.32821h-0.32821zM239.67364,183.7544h0.32821v0.32821h-0.32821zM241.31556,182.76977h0.65649v0.65642h-0.65649zM241.31556,183.7544h0.65649v2.29754h-0.65649zM243.61566,185.39552h0.32821v0.32821h-0.32821zM243.61566,185.72373h0.32821v0.32821h-0.32821zM243.28744,185.72373h0.32821v0.32821h-0.32821zM243.28744,185.39552h0.32821v0.32821h-0.32821zM242.95923,185.72373h0.32821v0.32821h-0.32821zM242.95923,185.39552h0.32821v0.32821h-0.32821zM242.63103,185.39552h0.32821v0.32821h-0.32821zM242.63103,185.06731h0.32821v0.32821h-0.32821zM242.63103,184.73903h0.32821v0.32828h-0.32821zM242.63103,184.41083h0.32821v0.32821h-0.32821zM242.63103,184.08261h0.32821v0.32821h-0.32821zM242.63103,183.7544h0.32821v0.32821h-0.32821zM242.95923,184.73903h0.32821v0.32828h-0.32821zM242.95923,185.06731h0.32821v0.32821h-0.32821zM242.95923,184.41083h0.32821v0.32821h-0.32821zM242.95923,184.08261h0.32821v0.32821h-0.32821zM242.95923,182.76977h0.32821v0.32821h-0.32821zM242.95923,183.09798h0.32821v0.32821h-0.32821zM242.95923,183.42619h0.32821v0.32821h-0.32821zM242.95923,183.7544h0.32821v0.32821h-0.32821zM242.63103,183.42619h0.32821v0.32821h-0.32821zM242.30281,183.7544h0.32821v0.32821h-0.32821zM243.28744,183.7544h0.32821v0.32821h-0.32821zM243.61566,183.7544h0.32821v0.32821h-0.32821zM242.63103,183.09798h0.32821v0.32821h-0.32821zM242.30281,184.08261h0.32821v0.32821h-0.32821zM243.28744,184.08261h0.32821v0.32821h-0.32821zM243.61566,184.08261h0.32821v0.32821h-0.32821zM244.9277,183.42619h0.32821v0.32821h-0.32821zM244.59949,183.42619h0.32821v0.32821h-0.32821zM244.59949,183.7544h0.32821v0.32821h-0.32821zM244.9277,183.7544h0.32821v0.32821h-0.32821zM245.25592,183.42619h0.32821v0.32821h-0.32821zM245.58412,183.42619h0.32821v0.32821h-0.32821zM245.91233,183.42619h0.32821v0.32821h-0.32821zM245.91233,183.7544h0.32821v0.32821h-0.32821zM245.58412,183.7544h0.32821v0.32821h-0.32821zM246.24055,183.7544h0.32821v0.32821h-0.32821zM246.24055,184.08261h0.32821v0.32821h-0.32821zM246.24055,185.39552h0.32821v0.32821h-0.32821zM245.91233,185.39552h0.32821v0.32821h-0.32821zM245.91233,184.08261h0.32821v0.32821h-0.32821zM245.58412,185.39552h0.32821v0.32821h-0.32821zM245.91233,185.72373h0.32821v0.32821h-0.32821zM245.58412,185.72373h0.32821v0.32821h-0.32821zM245.25592,185.72373h0.32821v0.32821h-0.32821zM244.9277,185.72373h0.32821v0.32821h-0.32821zM244.59949,185.72373h0.32821v0.32821h-0.32821zM244.59949,185.39552h0.32821v0.32821h-0.32821zM244.9277,185.39552h0.32821v0.32821h-0.32821zM244.59949,185.06731h0.32821v0.32821h-0.32821zM244.27122,185.39552h0.32828v0.32821h-0.32828zM244.27122,185.06731h0.32828v0.32821h-0.32828zM244.27122,184.73903h0.32828v0.32828h-0.32828zM244.27122,184.41083h0.32828v0.32821h-0.32828zM244.27122,184.08261h0.32828v0.32821h-0.32828zM244.27122,183.7544h0.32828v0.32821h-0.32828zM244.59949,184.08261h0.32821v0.32821h-0.32821zM244.59949,184.41083h0.32821v0.32821h-0.32821zM244.59949,184.73903h0.32821v0.32828h-0.32821zM245.25592,185.39552h0.32821v0.32821h-0.32821zM245.25592,183.7544h0.32821v0.32821h-0.32821zM245.91233,184.41083h0.32821v0.32821h-0.32821zM246.24055,184.41083h0.32821v0.32821h-0.32821zM244.9277,184.73903h0.32821v0.32828h-0.32821zM245.25592,184.73903h0.32821v0.32828h-0.32821zM245.58412,184.73903h0.32821v0.32828h-0.32821zM245.91233,184.73903h0.32821v0.32828h-0.32821zM246.24055,184.73903h0.32821v0.32828h-0.32821zM245.58412,184.41083h0.32821v0.32821h-0.32821zM245.25592,184.41083h0.32821v0.32821h-0.32821zM244.9277,184.41083h0.32821v0.32821h-0.32821z" fill="#ffffff" fill-rule="nonzero" stroke="none"/><path d="M241.96933,175.64042l0.42422,0.77136c0.26015,0.47139 0.39702,1.00558 0.39702,1.54927c0,0.54368 -0.13688,1.07795 -0.39702,1.54934l-0.42673,0.77044l-1.47913,-0.88592l0.42501,-0.77044c0.11157,-0.20212 0.17032,-0.43114 0.17032,-0.66426c0,-0.23313 -0.05875,-0.46214 -0.17032,-0.66426l-0.42415,-0.77044z" fill="#ffffff" fill-rule="nonzero" stroke="none"/><path d="M245.77728,177.96222c-0.00031,1.08756 -0.27448,2.15601 -0.79514,3.09886l-0.42587,0.77044l-1.47913,-0.88599l0.42508,-0.77044c0.37195,-0.67339 0.56782,-1.43654 0.56814,-2.21329c0.00031,-0.77681 -0.19502,-1.54014 -0.56648,-2.21384l-0.42501,-0.77044l1.48077,-0.88508l0.42422,0.77044c0.52016,0.94315 0.79372,2.01178 0.79342,3.09935z" fill="#ffffff" fill-rule="evenodd" stroke="none"/><path d="M239.26145,176.52548l-0.42415,0.77044c-0.11157,0.20212 -0.17032,0.43114 -0.17032,0.66426c0,0.23313 0.05875,0.46214 0.17032,0.66426l0.42501,0.77044l-1.47913,0.88592l-0.42673,-0.77044c-0.26015,-0.47139 -0.39702,-1.00565 -0.39702,-1.54934c0,-0.54368 0.13688,-1.07788 0.39702,-1.54927l0.42422,-0.77136z" fill="#ffffff" fill-rule="nonzero" stroke="none"/><path d="M234.76613,174.86287l0.42418,-0.77044l1.48081,0.88508l-0.42501,0.77044c-0.37146,0.6737 -0.56678,1.43703 -0.56648,2.21384c0.0003,0.77676 0.19617,1.5399 0.56813,2.21329l0.42508,0.77044l-1.4791,0.88599l-0.42589,-0.77044c-0.52068,-0.94285 -0.79483,-2.01129 -0.79512,-3.09886c-0.0003,-1.08756 0.27326,-2.15619 0.79342,-3.09935z" fill="#ffffff" fill-rule="evenodd" stroke="none"/></g></g></svg>